<svg fill="none" height="200" viewBox="0 0 159 200" width="159" xmlns="http://www.w3.org/2000/svg" xmlns:xlink="http://www.w3.org/1999/xlink"><filter id="a" color-interpolation-filters="sRGB" filterUnits="userSpaceOnUse" height="200" width="159" x="0" y="0"><feFlood flood-opacity="0" result="BackgroundImageFix"/><feColorMatrix in="SourceAlpha" result="hardAlpha" type="matrix" values="0 0 0 0 0 0 0 0 0 0 0 0 0 0 0 0 0 0 127 0"/><feOffset dy="4"/><feGaussianBlur stdDeviation="4"/><feColorMatrix type="matrix" values="0 0 0 0 0 0 0 0 0 0 0 0 0 0 0 0 0 0 0.12 0"/><feBlend in2="BackgroundImageFix" mode="normal" result="effect1_dropShadow_33487_9418"/><feColorMatrix in="SourceAlpha" result="hardAlpha" type="matrix" values="0 0 0 0 0 0 0 0 0 0 0 0 0 0 0 0 0 0 127 0"/><feOffset dy="15"/><feGaussianBlur stdDeviation="7.5"/><feColorMatrix type="matrix" values="0 0 0 0 0 0 0 0 0 0 0 0 0 0 0 0 0 0 0.1 0"/><feBlend in2="effect1_dropShadow_33487_9418" mode="normal" result="effect2_dropShadow_33487_9418"/><feColorMatrix in="SourceAlpha" result="hardAlpha" type="matrix" values="0 0 0 0 0 0 0 0 0 0 0 0 0 0 0 0 0 0 127 0"/><feOffset dy="35"/><feGaussianBlur stdDeviation="10.5"/><feColorMatrix type="matrix" values="0 0 0 0 0 0 0 0 0 0 0 0 0 0 0 0 0 0 0.06 0"/><feBlend in2="effect2_dropShadow_33487_9418" mode="normal" result="effect3_dropShadow_33487_9418"/><feColorMatrix in="SourceAlpha" result="hardAlpha" type="matrix" values="0 0 0 0 0 0 0 0 0 0 0 0 0 0 0 0 0 0 127 0"/><feOffset dy="62"/><feGaussianBlur stdDeviation="12.5"/><feColorMatrix type="matrix" values="0 0 0 0 0 0 0 0 0 0 0 0 0 0 0 0 0 0 0.02 0"/><feBlend in2="effect3_dropShadow_33487_9418" mode="normal" result="effect4_dropShadow_33487_9418"/><feBlend in="SourceGraphic" in2="effect4_dropShadow_33487_9418" mode="normal" result="shape"/></filter><filter id="b" color-interpolation-filters="sRGB" filterUnits="userSpaceOnUse" height="178" width="178" x="-9" y="-73"><feFlood flood-opacity="0" result="BackgroundImageFix"/><feBlend in="SourceGraphic" in2="BackgroundImageFix" mode="normal" result="shape"/><feGaussianBlur result="effect1_foregroundBlur_33487_9418" stdDeviation="20"/></filter><linearGradient id="c" gradientUnits="userSpaceOnUse" x1="25" x2="142.384" y1="4" y2="13.934"><stop offset="0" stop-color="#2e52e5"/><stop offset="1" stop-color="#1a2d7f"/></linearGradient><linearGradient id="d" gradientUnits="userSpaceOnUse" x1="79.5" x2="79.5" y1="4" y2="113"><stop offset="0" stop-color="#f5f5f5"/><stop offset="1" stop-color="#f5f5f5" stop-opacity="0"/></linearGradient><clipPath id="e"><rect height="109" rx="54.5" width="109" x="25" y="4"/></clipPath><g filter="url(#a)"><g clip-path="url(#e)"><rect fill="url(#c)" height="109" rx="54.5" width="109" x="25" y="4"/><g filter="url(#b)"><circle cx="80" cy="16" fill="#577eee" r="49"/></g><path d="m94.8145 53.1287 7.1825-12.1128.003.0029-7.1826-12.0188v6.4208l-18.0001-.0176v.0176h-7.7584l-11.0589 32.6007h16.1798c.4245-.0177.8316.1645 1.105.4907.2617.3379.3635.7699.2791 1.1901l-4.0129 19.2977 20.8121-32.2333h-15.4179c-.506.0029-.98-.2616-1.2446-.6994-.221-.4467-.1948-.9756.0669-1.3988l4.644-8.0723h14.403z" fill="#f5f5f5"/></g><rect height="108" rx="54" stroke="url(#d)" stroke-opacity=".6" width="108" x="25.5" y="4.5"/></g></svg>