<svg fill="none" height="32" viewBox="0 0 32 32" width="32" xmlns="http://www.w3.org/2000/svg" xmlns:xlink="http://www.w3.org/1999/xlink"><filter id="a" color-interpolation-filters="sRGB" height="1" width="1" x="0" y="0"><feFlood flood-opacity="0" result="BackgroundImageFix"/><feBlend in="SourceGraphic" in2="BackgroundImageFix" mode="normal" result="shape"/><feGaussianBlur in="BackgroundImageFix" stdDeviation="1.33333349228"/><feComposite in2="SourceAlpha" operator="in" result="effect1_foregroundBlur"/><feBlend in="SourceGraphic" in2="effect1_foregroundBlur" mode="normal" result="shape"/></filter><linearGradient id="b" x1=".073537" x2=".99071" y1=".128994" y2=".938379"><stop offset="0" stop-color="#5c5cff"/><stop offset="1" stop-color="#ae5cff"/></linearGradient><g filter="url(#a)"><rect fill="none" height="32" rx="16" width="32"/></g><path d="m31.84311133 14.751c-.5277-7.56979-6.3457-13.70409-13.8771-14.631302-7.5313-.92721-14.66347 3.612742-17.011415 10.828502-.608934 1.8766.778225 3.8028 2.751045 3.8028 1.24441.0007 2.34999-.7941 2.74576-1.9738 1.04593-3.12619 4.05301-8.86319 12.03061-8.86319q10.9639 0 13.3611 10.83699zm-22.71543 2.5804v-4.2452q0-.084.0164-.1664.0164-.0825.04856-.1601.03216-.0777.07886-.1475.04669-.0699.10612-.1294.05943-.0594.12931-.1061.06988-.0467.14753-.0788.07765-.0322.16008-.0486.08243-.0164.16648-.0164h1.06819q.084 0 .1665.0164.0824.0164.1601.0486.0776.0321.1475.0788.0699.0467.1293.1061.0594.0595.1061.1294.0467.0698.0789.1475.0321.0776.0485.1601.0164.0824.0164.1664v4.2452q0 .084-.0164.1664-.0164.0825-.0485.1601-.0322.0777-.0789.1476-.0467.0698-.1061.1293-.0594.0594-.1293.1061-.0699.0467-.1475.0788-.0777.0322-.1601.0486-.0825.0164-.1665.0164h-1.06819q-.08405 0-.16648-.0164-.08243-.0164-.16008-.0486-.07765-.0321-.14753-.0788-.06988-.0467-.12931-.1061-.05943-.0595-.10612-.1293-.0467-.0699-.07886-.1476-.03216-.0776-.04856-.1601-.0164-.0824-.0164-.1664zm8.14593-.0019c-.001.472.3813.8552.8533.8552h1.2815c.4706 0 .8523-.3809.8534-.8515l.0046-2.1225v-.0038l-.0046-2.1225c-.0011-.4706-.3828-.8515-.8534-.8515h-1.2815c-.472 0-.8543.3832-.8533.8552l.0046 2.1188v.0038zm-3.6989 10.7228c7.9775 0 10.9846-5.737 12.0311-8.8626.3956-1.1799 1.5013-1.9747 2.7457-1.9739 1.9723 0 3.36 1.9258 2.7511 3.8023-.5502 1.7008-1.3864 3.2953-2.4728 4.7149l1.5078 4.4905-5.3624-.8803c-10.1293 6.7052-23.726432-.0086-24.5611-12.1274q2.39712 10.8365 13.3606 10.8365z" fill="url(#b)" fill-rule="evenodd"/></svg>