<svg fill="none" height="120" viewBox="0 0 416 120" width="416" xmlns="http://www.w3.org/2000/svg"><g fill="#000"><path d="m387.041 89.208h-14.076v-59.208h14.076v34.4867h.176l11.085-18.1231h15.484v.3519l-13.021 20.2345v.3519l15.132 21.9061h-16.187l-12.405-19.7947-.264-.0879z"/><path d="m347.778 89.2081h-14.076v-42.8444h11.437l1.144 8.7976h.264c.528-3.2844 1.789-5.6304 3.783-7.0381 1.994-1.4662 4.956-2.1994 8.885-2.1994 1.584 0 3.021.088 4.311.264 1.29.1173 2.375.2346 3.255.3519v13.7243l-.176.1759c-.938-.2346-2.023-.4399-3.255-.6158-1.173-.176-2.522-.264-4.047-.264-2.17 0-4.135.3519-5.894 1.0558-1.701.7038-3.05 2.0821-4.047 4.1348-.938 1.9942-1.408 4.9854-1.408 8.9736z"/><path d="m327.509 88.9441v.2639c-20.569 0-32.362 0-55.425 0v-.176l18.035-55.513h19.355zm-27.888-45.3958-12.581 45.6617h20.51l3.289-6.21-10.867-39.4517z"/><path d="m225.034 68.0938c0-7.8592 1.672-13.519 5.015-16.9794s9.003-5.1906 16.979-5.1906c5.337 0 9.619.7625 12.845 2.2874s5.542 3.9296 6.95 7.2141c1.466 3.2258 2.199 7.4486 2.199 12.6685 0 5.1613-.733 9.3548-2.199 12.5806-1.408 3.2258-3.724 5.6012-6.95 7.1261-3.226 1.4663-7.508 2.1994-12.845 2.1994-7.976 0-13.636-1.7009-16.979-5.1026-3.343-3.4604-5.015-9.0616-5.015-16.8035zm21.994 9.8534c3.402 0 5.689-.7332 6.862-2.1994 1.232-1.525 1.848-4.1642 1.848-7.9179 0-3.5777-.616-6.129-1.848-7.6539-1.173-1.5836-3.46-2.3754-6.862-2.3754-3.284 0-5.572.7918-6.862 2.3754-1.232 1.5249-1.847 4.0762-1.847 7.6539 0 3.7537.615 6.3929 1.847 7.9179 1.29 1.4662 3.578 2.1994 6.862 2.1994z"/><path d="m177.161 86.3927c-.997-3.1671-2.023-6.5395-3.079-10.1172-.997-3.5777-1.994-7.1261-2.991-10.6451-.997-3.5191-1.906-6.8035-2.727-9.8534-.822-3.0498-1.525-5.6891-2.112-7.9178-.586-2.2288-.997-3.8123-1.232-4.7508l-.351.088c.176 1.0557.322 2.4634.439 4.2229.118 1.7009.206 3.519.264 5.4545.059 1.8768.088 3.607.088 5.1906v31.1436h-13.46v-55.689h23.578c.821 3.1085 1.671 6.393 2.551 9.8534.938 3.4017 1.847 6.8035 2.727 10.2052.939 3.3431 1.76 6.5396 2.464 9.5894.703 2.9912 1.202 5.6012 1.495 7.8299h.176c.293-2.2287.763-4.8387 1.408-7.8299.704-2.9912 1.495-6.1876 2.375-9.5894.88-3.4017 1.789-6.8035 2.727-10.2052.939-3.4604 1.789-6.7449 2.552-9.8534h23.225v55.689h-13.284v-31.1436c0-1.5836.029-3.3138.088-5.1906.059-1.9355.147-3.7536.264-5.4545.176-1.7595.322-3.1672.44-4.2229l-.352-.088c-.235.9385-.645 2.522-1.232 4.7508-.586 2.2287-1.319 4.8973-2.199 8.0058-.821 3.0498-1.73 6.3343-2.728 9.8533-.997 3.5191-2.023 7.0675-3.079 10.6452-.997 3.519-1.964 6.8621-2.903 10.0292z"/><path d="m110.561 27.6816c5.974 9.3281 9.439 20.4187 9.439 32.3184 0 33.137-26.863 60-60 60-.5064 0-1.0113-.007-1.5146-.02l-.5987-1.243c-4.6556-9.816-7.7528-20.182-11.0976-32.4772 8.7197-3.6355 16.4072-6.8672 24.1171-10.7452 1.3615 4.0511 2.8065 8.0241 4.3194 12.0127 1.412 3.7223 4.9647 2.1699 3.7744-1.7773-1.3051-4.3275-2.5064-8.4954-3.6016-12.5703 5.7959-3.114 11.7194-6.7006 18.2071-11.2022 7.4775-5.8593 3.0406-5.7175-1.5606-3.4121-4.7922 2.4012-10.8693 5.2861-18.2011 8.5821-2.1072-8.5658-3.6964-16.8674-4.6768-25.583-.2636-2.3432-.5028-4.8089-.7119-7.3467 12.6984-2.8494 26.5199-5.132 42.1059-6.5362zm-69.9389 61.087c4.1799 12.3804 9.1541 23.5944 13.1406 30.9094-16.7255-1.728-31.4117-10.325-41.1895-22.9231 9.2025-1.9502 18.748-4.4279 28.0489-7.9863zm19.1894-88.76762344c-.5324 8.78037344-.295 19.96882344.7598 29.73732344-8.4464 1.4938-16.4034 3.2827-24.0938 5.375-.3319-3.8354-.499-7.3405-.499-10.3887-.0001-2.209-1.7919-4-4.001-4-2.2088.0003-3.9998 1.7912-4 4 0 3.7115.3092 7.9706.8653 12.5918-3.8348 1.1693-7.6206 2.4158-11.3848 3.7471-2.0827.7366-3.1741 3.0227-2.4375 5.1054.7368 2.0824 3.0219 3.1731 5.1045 2.4366 3.2542-1.1509 6.5296-2.2887 9.8428-3.4073 1.5986 9.8051 4.0352 20.6299 6.8427 31.0479.4899 1.8177 1.0079 3.6304 1.5479 5.4297-10.3338 3.5616-20.8799 6.4561-30.52442 7.9853-4.98499-8.7483-7.83392847-18.8718-7.83398-29.6611 0-33.0742 26.7611-59.897392 59.8115-59.99902344zm1.5684 35.89162344c.3973 2.5189.8585 4.8605 1.3877 6.9385 1.5709 9.8007 3.6766 18.3976 6.1533 26.5078-4.1054 1.8091-8.5503 3.7259-13.3311 5.7382-3.4665 1.4592-7.0407 2.8834-10.6718 4.2422-.4503-1.6808-.9096-3.398-1.3828-5.1543-2.901-10.7648-4.9906-21.7354-6.2276-31.3857 7.6909-2.4678 15.6466-4.7954 24.0723-6.8867zm6.4082-35.391623c16.6818 2.162203 31.2143 11.175423 40.6819 24.126023-14.9528.7555-28.2277 2.0409-40.427 3.8886-.6077-9.7236-.7644-19.92763-.2549-28.014623z"/></g></svg>